<?xml version="1.0" encoding="UTF-8" standalone="no"?>
<svg
   xmlns:dc="http://purl.org/dc/elements/1.1/"
   xmlns:cc="http://creativecommons.org/ns#"
   xmlns:rdf="http://www.w3.org/1999/02/22-rdf-syntax-ns#"
   xmlns:svg="http://www.w3.org/2000/svg"
   xmlns="http://www.w3.org/2000/svg"
   id="svg310"
   style="fill-rule:evenodd;clip-rule:evenodd;stroke-linejoin:round;stroke-miterlimit:1.41421;"
   xml:space="preserve"
   version="1.1"
   viewBox="0 0 734 579"
   height="100%"
   width="100%"><metadata
     id="metadata316"><rdf:RDF><cc:Work
         rdf:about=""><dc:format>image/svg+xml</dc:format><dc:type
           rdf:resource="http://purl.org/dc/dcmitype/StillImage" /><dc:title></dc:title></cc:Work></rdf:RDF></metadata><defs
     id="defs314" /><g
     id="g10"
     transform="matrix(1,0,0,1,-671.764,-1123.25)"><g
       id="g4"
       transform="matrix(0.581928,0,0,0.489013,18.8771,698.385)"><path
         id="path2"
         d="M1363.27,1839.93L1375.28,1837.88C1427.83,1837.88 1449.88,1880.55 1449.88,1933.11C1449.88,1935.18 1449.81,1937.24 1449.68,1939.29L1449.68,1975.5C1449.68,2011.51 1420.49,2040.75 1384.35,2040.83L1187.27,2040.83C1151.21,2040.83 1121.94,2011.56 1121.94,1975.5L1121.94,1931.25C1121.94,1926.39 1122.47,1921.65 1123.48,1917.09C1131.1,1872.15 1146.2,1837.88 1193.3,1837.88L1207.74,1839.93C1223.09,1856.97 1266.38,1885.42 1287.22,1885.42C1308.07,1885.42 1347.92,1856.97 1363.27,1839.93Z" /></g><g
       id="g8"
       transform="matrix(1,0,0,1,-276.993,-632.931)"><path
         id="path6"
         d="M1034.18,2115.4L1029.42,2109.16L1053.39,2108.9L1094.79,2141.97L1093.82,2163.2C1094.69,2167.85 1095.14,2172.68 1095.14,2177.65C1095.14,2212.73 1072.41,2241.2 1044.41,2241.2C1016.42,2241.2 993.684,2212.73 993.684,2177.65C993.684,2173.04 994.078,2168.54 994.825,2164.21L992.155,2122.92L1006.42,2130.16L1003.64,2116.43L1025.47,2118.69C1028.26,2117.28 1031.17,2116.18 1034.18,2115.4ZM1062.57,2154.72L1033.25,2160.49L1047.12,2144.46L1047.3,2138.81L1030.37,2153.19L1028.32,2154.13C1023.31,2164.24 1019.36,2177.25 1017.08,2188.39L1008.33,2174.65C1008.28,2175.64 1008.25,2176.64 1008.25,2177.65C1008.25,2202.66 1024.45,2222.96 1044.41,2222.96C1064.37,2222.96 1080.58,2202.66 1080.58,2177.65C1080.58,2177.36 1080.58,2177.07 1080.57,2176.77L1073.46,2187.92C1071.2,2177.16 1067.38,2164.63 1062.57,2154.72ZM1010.49,2162.23L1010.39,2162.28C1010.29,2162.62 1010.19,2162.98 1010.1,2163.33C1010.23,2162.96 1010.36,2162.6 1010.49,2162.23Z" /></g></g><g
     id="g20"
     transform="matrix(1,0,0,1,-396.72,-1475.97)"><g
       id="g14"
       transform="matrix(0.581928,0,0,0.489013,18.8771,698.385)"><path
         id="path12"
         d="M1363.27,1839.93L1375.28,1837.88C1427.83,1837.88 1449.88,1880.55 1449.88,1933.11C1449.88,1935.18 1449.81,1937.24 1449.68,1939.29L1449.68,1975.5C1449.68,2011.51 1420.49,2040.75 1384.35,2040.83L1187.27,2040.83C1151.21,2040.83 1121.94,2011.56 1121.94,1975.5L1121.94,1931.25C1121.94,1926.39 1122.47,1921.65 1123.48,1917.09C1131.1,1872.15 1146.2,1837.88 1193.3,1837.88L1207.74,1839.93C1223.09,1856.97 1266.38,1885.42 1287.22,1885.42C1308.07,1885.42 1347.92,1856.97 1363.27,1839.93Z" /></g><g
       id="g18"
       transform="matrix(1,0,0,1,-276.993,-632.931)"><path
         id="path16"
         d="M1034.18,2115.4L1029.42,2109.16L1053.39,2108.9L1094.79,2141.97L1093.82,2163.2C1094.69,2167.85 1095.14,2172.68 1095.14,2177.65C1095.14,2212.73 1072.41,2241.2 1044.41,2241.2C1016.42,2241.2 993.684,2212.73 993.684,2177.65C993.684,2173.04 994.078,2168.54 994.825,2164.21L992.155,2122.92L1006.42,2130.16L1003.64,2116.43L1025.47,2118.69C1028.26,2117.28 1031.17,2116.18 1034.18,2115.4ZM1062.57,2154.72L1033.25,2160.49L1047.12,2144.46L1047.3,2138.81L1030.37,2153.19L1028.32,2154.13C1023.31,2164.24 1019.36,2177.25 1017.08,2188.39L1008.33,2174.65C1008.28,2175.64 1008.25,2176.64 1008.25,2177.65C1008.25,2202.66 1024.45,2222.96 1044.41,2222.96C1064.37,2222.96 1080.58,2202.66 1080.58,2177.65C1080.58,2177.36 1080.58,2177.07 1080.57,2176.77L1073.46,2187.92C1071.2,2177.16 1067.38,2164.63 1062.57,2154.72ZM1010.49,2162.23L1010.39,2162.28C1010.29,2162.62 1010.19,2162.98 1010.1,2163.33C1010.23,2162.96 1010.36,2162.6 1010.49,2162.23Z" /></g></g><g
     id="g294"
     transform="matrix(1,0,0,1,-2520.15,-397.512)"><g
       id="g24"
       transform="matrix(1,0,0,1,299.467,-1242.22)"><path
         id="path22"
         d="M2806.62,2218.28C2785.64,2218.28 2768.6,2203.96 2768.6,2186.33C2768.6,2186.33 2781.12,2136.75 2804.73,2119.16L2819.05,2118.96C2819.45,2123.5 2845.61,2140.25 2848.54,2138.75C2848.54,2138.75 2855.78,2152.62 2861.47,2155.76C2867.16,2152.62 2874.4,2138.75 2874.4,2138.75C2877.33,2140.25 2903.49,2123.5 2903.88,2118.96L2918.2,2119.16C2941.81,2136.75 2954.34,2186.33 2954.34,2186.33C2954.34,2203.96 2937.3,2218.28 2916.32,2218.28L2806.62,2218.28Z" /></g><g
       id="g28"
       transform="matrix(1,0,0,1,208.151,-634.008)"><path
         id="path26"
         d="M2899.54,1469.66C2895.31,1458.49 2893.24,1448.64 2895.59,1444.82C2890.69,1420.33 2908.13,1391.02 2932.89,1385.45C2946.15,1382.46 2958.66,1386.38 2971.28,1390.47C2984.05,1394.61 2996.01,1398.2 3003.6,1409.84C3015.68,1428.38 3008.05,1454.67 3001.07,1473.45C2999.55,1478.73 2996.87,1490.62 2995.16,1495.55C2993.4,1500.6 2992.2,1504.77 2989.59,1508.31C2985.11,1514.38 2980.47,1518.34 2978.65,1517.9L2976.53,1512.12C2978.93,1511.18 2983.77,1504.42 2982.21,1503.64C2982.06,1503.56 2981.25,1503.27 2980.43,1503.8C2978.92,1504.76 2977.04,1506.92 2976.92,1507.2C2976.8,1507.46 2973.86,1510.31 2972.17,1511.19C2962.25,1516.46 2949.35,1518.5 2938.48,1514.94C2938.42,1515.24 2938.13,1519.79 2937.32,1521.58C2937.01,1522.26 2934.45,1520.2 2934.41,1520.31C2934.93,1513.44 2933.82,1502.29 2926.63,1500.31C2926.53,1500.29 2923.31,1501.65 2923.76,1502.26C2926.41,1505.88 2932.28,1515.01 2930.64,1515.8L2929.6,1518.32C2929.6,1518.32 2918,1508.36 2912.72,1500.1C2905.86,1492.23 2902.17,1480.98 2899.54,1469.66M2977.3,1423.18C2977.1,1423.12 2976.91,1423.14 2976.73,1423.26L2976.7,1423.28C2976.68,1423.3 2976.66,1423.31 2976.64,1423.33L2976.61,1423.36L2976.59,1423.38L2976.57,1423.4L2976.56,1423.41C2975.53,1424.51 2974.52,1425.66 2973.27,1426.51L2973.2,1426.56C2972.44,1427.07 2971.57,1427.61 2970.61,1428.16C2968.2,1429.55 2965.2,1431.03 2961.85,1432.5C2959.8,1433.41 2957.62,1434.33 2955.37,1435.21L2954.62,1435.51L2954.55,1435.54C2944.52,1439.44 2933.24,1442.82 2925.64,1443.68C2925.44,1443.7 2925.24,1443.72 2925.05,1443.74C2922.64,1443.98 2920.63,1443.94 2919.2,1443.56L2919.08,1443.74L2918.94,1448.94L2918.79,1454.57L2918.82,1457.04L2918.86,1459.31L2919.03,1461.86L2919.17,1464.01L2919.5,1466.68L2919.76,1468.77L2920.32,1471.7L2920.7,1473.73L2921.59,1477.25L2922.04,1479.04C2922.65,1480.98 2939.91,1508.14 2942.08,1506.99L2941.93,1507.08C2948.85,1509.28 2956.32,1508.81 2962.93,1505.92C2962.93,1505.92 2971.42,1494.74 2974.06,1492.54C2974.68,1492.04 2975.29,1491.52 2975.89,1490.99L2975.95,1490.93L2976.14,1490.76C2976.98,1490 2977.8,1489.2 2978.61,1488.37C2978.86,1488.11 2979.1,1487.85 2979.35,1487.59C2981.4,1485.39 2983.34,1482.95 2985.16,1480.29C2985.21,1480.08 2985.25,1479.87 2985.29,1479.66C2985.54,1478.39 2985.75,1477.1 2985.92,1475.79C2987.09,1466.86 2986.58,1457.04 2985.3,1448.32C2983.8,1437.97 2981.22,1429.22 2979.09,1425.31C2978.44,1424.09 2977.83,1423.34 2977.3,1423.18" /></g><g
       id="g32"
       transform="matrix(1,0,0,1,-8.2633,-767.777)"><path
         id="path30"
         d="M3180.22,1639.3L3180.1,1639.36L3180.22,1639.3L3180.42,1639.21L3180.22,1639.3Z" /></g><g
       id="g36"
       transform="matrix(1,0,0,1,-8.2633,-767.777)"><path
         id="path34"
         d="M3153.37,1638.94C3153.46,1638.98 3153.55,1639.02 3153.64,1639.06L3153.57,1639.03L3153.37,1638.94Z" /></g><g
       id="g40"
       transform="matrix(1,0,0,1,-8.2633,-767.777)"><path
         id="path38"
         d="M3181.31,1638.77L3181.18,1638.84L3181.31,1638.77L3181.37,1638.74L3181.31,1638.77Z" /></g><g
       id="g44"
       transform="matrix(1,0,0,1,-8.2633,-767.777)"><path
         id="path42"
         d="M3181.74,1638.55L3181.59,1638.63L3181.74,1638.55L3181.79,1638.52L3181.74,1638.55Z" /></g><g
       id="g48"
       transform="matrix(1,0,0,1,-8.2633,-767.777)"><path
         id="path46"
         d="M3182.89,1637.91C3183.01,1637.85 3183.12,1637.79 3183.23,1637.72L3183.02,1637.84L3182.89,1637.91Z" /></g><g
       id="g52"
       transform="matrix(1,0,0,1,-8.2633,-767.777)"><path
         id="path50"
         d="M3183.65,1637.47L3183.64,1637.47L3183.65,1637.47L3183.84,1637.35L3183.65,1637.47Z" /></g><g
       id="g56"
       transform="matrix(1,0,0,1,-8.2633,-767.777)"><path
         id="path54"
         d="M3185.67,1636.13L3185.66,1636.14L3185.5,1636.25L3185.49,1636.26L3185.33,1636.37L3185.33,1636.37L3184.66,1636.82L3184.68,1636.81C3184.9,1636.67 3185.11,1636.52 3185.33,1636.37L3185.33,1636.37L3185.33,1636.37L3185.41,1636.32L3185.49,1636.26L3185.5,1636.25L3185.5,1636.25L3185.55,1636.22L3185.66,1636.14L3185.67,1636.13L3185.67,1636.13Z" /></g><g
       id="g60"
       transform="matrix(1,0,0,1,-8.2633,-767.777)"><path
         id="path58"
         d="M3186.7,1635.38C3186.63,1635.43 3186.57,1635.48 3186.5,1635.53L3186.7,1635.38C3186.77,1635.33 3186.83,1635.27 3186.9,1635.22L3186.7,1635.38Z" /></g><g
       id="g64"
       transform="matrix(1,0,0,1,-8.2633,-767.777)"><path
         id="path62"
         d="M3146.46,1634.82L3146.49,1634.84L3146.46,1634.82L3146.4,1634.77L3146.46,1634.82Z" /></g><g
       id="g68"
       transform="matrix(1,0,0,1,-8.2633,-767.777)"><path
         id="path66"
         d="M3189.22,1633.27L3189.22,1633.28L3189.12,1633.36L3189.11,1633.38L3189.02,1633.46L3189,1633.48L3188.91,1633.55L3188.89,1633.57L3188.81,1633.64L3188.78,1633.67L3188.7,1633.74L3188.66,1633.78L3188.59,1633.83L3188.6,1633.83L3188.66,1633.78L3188.7,1633.74L3188.7,1633.74L3188.72,1633.72L3188.78,1633.67L3188.8,1633.65L3188.81,1633.64L3188.84,1633.62L3188.89,1633.57L3188.91,1633.56L3188.91,1633.55L3188.95,1633.52L3189,1633.48L3189.01,1633.47L3189.02,1633.46L3189.07,1633.41L3189.11,1633.38L3189.11,1633.37L3189.12,1633.36L3189.18,1633.31L3189.22,1633.28L3189.22,1633.28L3189.22,1633.27Z" /></g><g
       id="g72"
       transform="matrix(1,0,0,1,-8.2633,-767.777)"><path
         id="path70"
         d="M3141.43,1630.51C3141.55,1630.63 3141.68,1630.76 3141.8,1630.88C3141.62,1630.7 3141.44,1630.52 3141.26,1630.34L3141.43,1630.51Z" /></g><g
       id="g76"
       transform="matrix(1,0,0,1,-8.2633,-767.777)"><path
         id="path74"
         d="M3192.13,1630.35L3192.03,1630.47L3192,1630.5L3191.91,1630.6L3191.95,1630.56L3192,1630.5L3192.01,1630.48L3192.03,1630.47L3192.1,1630.39L3192.13,1630.35Z" /></g><g
       id="g80"
       transform="matrix(1,0,0,1,-8.2633,-767.777)"><path
         id="path78"
         d="M3138.5,1627.32C3138.61,1627.45 3138.71,1627.57 3138.82,1627.69C3138.66,1627.51 3138.5,1627.32 3138.35,1627.14L3138.5,1627.32Z" /></g><g
       id="g84"
       transform="matrix(1,0,0,1,-8.2633,-767.777)"><path
         id="path82"
         d="M3137.59,1626.19L3137.68,1626.31L3137.59,1626.19L3137.48,1626.05L3137.59,1626.19Z" /></g><g
       id="g88"
       transform="matrix(1,0,0,1,-8.2633,-767.777)"><path
         id="path86"
         d="M3136.04,1624.08C3135.98,1624 3135.92,1623.92 3135.87,1623.84L3136.01,1624.04L3136.04,1624.08Z" /></g><g
       id="g92"
       transform="matrix(1,0,0,1,-8.2633,-767.777)"><path
         id="path90"
         d="M3132.77,1618.55C3133.27,1619.56 3133.81,1620.55 3134.38,1621.51C3133.85,1620.62 3133.35,1619.71 3132.88,1618.77L3132.77,1618.55Z" /></g><g
       id="g96"
       transform="matrix(1,0,0,1,-8.2633,-767.777)"><path
         id="path94"
         d="M3132.13,1617.22C3132.2,1617.37 3132.27,1617.52 3132.34,1617.66L3132.23,1617.44L3132.13,1617.22Z" /></g><g
       id="g100"
       transform="matrix(1,0,0,1,-8.2633,-767.777)"><path
         id="path98"
         d="M3131.93,1616.77C3131.79,1616.46 3131.66,1616.16 3131.54,1615.86L3131.44,1615.63C3131.63,1616.09 3131.83,1616.54 3132.03,1616.99L3131.93,1616.77Z" /></g><g
       id="g104"
       transform="matrix(1,0,0,1,-8.2633,-767.777)"><path
         id="path102"
         d="M3130.82,1614C3130.93,1614.3 3131.04,1614.6 3131.16,1614.9C3131.07,1614.68 3130.99,1614.46 3130.91,1614.24L3130.82,1614Z" /></g><g
       id="g108"
       transform="matrix(1,0,0,1,-8.2633,-767.777)"><path
         id="path106"
         d="M3130.59,1613.34C3130.64,1613.48 3130.68,1613.63 3130.74,1613.77L3130.65,1613.54L3130.59,1613.34Z" /></g><g
       id="g112"
       transform="matrix(1,0,0,1,-8.2633,-767.777)"><path
         id="path110"
         d="M3202.29,1612.5L3202.29,1612.48L3202.3,1612.46L3202.29,1612.5Z" /></g><g
       id="g116"
       transform="matrix(1,0,0,1,-8.2633,-767.777)"><path
         id="path114"
         d="M3129.97,1611.39C3130,1611.48 3130.02,1611.56 3130.04,1611.63L3129.97,1611.39C3129.95,1611.32 3129.93,1611.23 3129.91,1611.15L3129.97,1611.39Z" /></g><g
       id="g120"
       transform="matrix(1,0,0,1,-8.2633,-767.777)"><path
         id="path118"
         d="M3129.45,1609.37C3129.41,1609.23 3129.38,1609.1 3129.35,1608.96L3129.41,1609.21L3129.45,1609.37Z" /></g><g
       id="g124"
       transform="matrix(1,0,0,1,-8.2633,-767.777)"><path
         id="path122"
         d="M3129.2,1608.22C3129.22,1608.33 3129.24,1608.43 3129.26,1608.53L3129.25,1608.47L3129.2,1608.22Z" /></g><g
       id="g128"
       transform="matrix(1,0,0,1,-8.2633,-767.777)"><path
         id="path126"
         d="M3128.84,1606.23C3128.87,1606.4 3128.89,1606.57 3128.92,1606.73L3128.88,1606.48L3128.84,1606.23Z" /></g><g
       id="g132"
       transform="matrix(1,0,0,1,-8.2633,-767.777)"><path
         id="path130"
         d="M3203.17,1605.25L3203.17,1605.36L3203.17,1605.25L3203.2,1604.76L3203.17,1605.25Z" /></g><g
       id="g136"
       transform="matrix(1,0,0,1,-8.2633,-767.777)"><path
         id="path134"
         d="M3128.76,1595.07L3128.74,1595.2L3128.76,1595.07L3128.76,1595.03L3128.76,1595.07Z" /></g><g
       id="g140"
       transform="matrix(1,0,0,1,-8.2633,-767.777)"><path
         id="path138"
         d="M3129.11,1592.92C3129.1,1592.97 3129.09,1593.02 3129.08,1593.06L3129.11,1592.93L3129.11,1592.92Z" /></g><g
       id="g144"
       transform="matrix(1,0,0,1,-8.2633,-767.777)"><path
         id="path142"
         d="M3204.84,1591.75L3204.83,1591.76C3204.82,1591.8 3204.81,1591.83 3204.8,1591.87L3204.79,1591.87L3204.79,1591.88L3204.77,1591.96L3204.75,1592.01L3204.75,1592.02L3204.74,1592.03L3204.75,1592.01L3204.79,1591.88L3204.8,1591.87L3204.84,1591.75Z" /></g><g
       id="g148"
       transform="matrix(1,0,0,1,-8.2633,-767.777)"><path
         id="path146"
         d="M3205.52,1589.61L3205.49,1589.7L3205.43,1589.91L3205.4,1590L3205.41,1589.97L3205.43,1589.91L3205.46,1589.81L3205.49,1589.7L3205.51,1589.65L3205.52,1589.61Z" /></g><g
       id="g152"
       transform="matrix(1,0,0,1,-8.2633,-767.777)"><path
         id="path150"
         d="M3206.79,1584.92C3206.82,1584.76 3206.86,1584.6 3206.9,1584.44L3206.91,1584.36L3206.79,1584.92Z" /></g><g
       id="g156"
       transform="matrix(1,0,0,1,-8.2633,-767.777)"><path
         id="path154"
         d="M3132.83,1582.08L3132.82,1582.09L3132.83,1582.08Z" /></g><g
       id="g160"
       transform="matrix(1,0,0,1,-8.2633,-767.777)"><path
         id="path158"
         d="M3207.75,1579.76L3207.73,1579.88L3207.72,1579.94L3207.71,1580.08L3207.7,1580.13L3207.68,1580.27L3207.67,1580.31L3207.65,1580.47L3207.65,1580.47L3207.62,1580.65L3207.6,1580.78L3207.59,1580.83L3207.58,1580.92L3207.56,1581.03L3207.56,1581.01L3207.58,1580.92L3207.59,1580.85L3207.59,1580.83L3207.59,1580.83L3207.6,1580.78L3207.62,1580.64L3207.65,1580.47L3207.65,1580.47L3207.65,1580.47L3207.66,1580.42L3207.67,1580.31L3207.68,1580.29L3207.68,1580.27L3207.69,1580.21L3207.7,1580.13L3207.7,1580.11L3207.71,1580.08L3207.72,1580L3207.72,1579.94L3207.73,1579.93L3207.73,1579.88L3207.75,1579.79L3207.75,1579.76Z" /></g><g
       id="g164"
       transform="matrix(1,0,0,1,-8.2633,-767.777)"><path
         id="path162"
         d="M3207.98,1577.78L3207.97,1577.92L3207.98,1577.78L3208,1577.59L3207.98,1577.78Z" /></g><g
       id="g168"
       transform="matrix(1,0,0,1,-8.2633,-767.777)"><path
         id="path166"
         d="M3137.66,1574.45L3137.83,1574.24L3137.68,1574.43L3137.66,1574.45L3137.64,1574.48L3137.57,1574.57L3137.5,1574.67L3137.48,1574.69L3137.46,1574.72L3137.39,1574.81L3137.32,1574.9L3137.3,1574.93L3137.28,1574.95L3137.21,1575.05L3137.14,1575.14L3137.13,1575.17L3137.11,1575.19L3136.97,1575.38L3137.13,1575.17L3137.21,1575.05L3137.3,1574.93L3137.39,1574.81L3137.48,1574.69L3137.57,1574.57L3137.66,1574.45Z" /></g><g
       id="g172"
       transform="matrix(1,0,0,1,-8.2633,-767.777)"><path
         id="path170"
         d="M3208.16,1574.97L3208.15,1575.04L3208.15,1575.2L3208.14,1575.27L3208.15,1575.24L3208.15,1575.2L3208.15,1575.12L3208.15,1575.04L3208.15,1575L3208.16,1574.97Z" /></g><g
       id="g176"
       transform="matrix(1,0,0,1,-8.2633,-767.777)"><path
         id="path174"
         d="M3207.54,1567.62L3207.56,1567.7L3207.58,1567.82L3207.6,1567.89L3207.62,1568.01L3207.64,1568.08L3207.66,1568.21L3207.67,1568.27L3207.7,1568.41L3207.73,1568.61L3207.77,1568.81L3207.8,1569.02L3207.83,1569.22L3207.86,1569.43L3207.89,1569.64L3207.92,1569.84L3207.94,1570.05L3207.97,1570.26L3207.99,1570.48L3208.01,1570.69L3208.03,1570.9L3208.05,1571.12L3208.07,1571.34L3208.09,1571.56L3208.1,1571.77L3208.11,1572L3208.13,1572.22L3208.14,1572.44L3208.14,1572.66L3208.15,1572.72L3208.15,1572.89L3208.15,1572.95L3208.16,1573.12L3208.16,1573.19L3208.16,1573.34L3208.16,1573.43L3208.17,1573.57L3208.17,1573.66L3208.17,1573.8L3208.17,1573.9L3208.17,1574.04L3208.17,1574.15L3208.17,1574.27L3208.17,1574.27L3208.17,1574.15L3208.17,1574.04L3208.17,1574.04L3208.17,1574.03L3208.17,1573.9L3208.17,1573.81L3208.17,1573.8L3208.17,1573.8L3208.17,1573.66L3208.17,1573.58L3208.17,1573.57L3208.17,1573.57L3208.16,1573.43L3208.16,1573.35L3208.16,1573.34L3208.16,1573.34L3208.16,1573.19L3208.16,1573.12L3208.16,1573.12L3208.16,1573.11L3208.15,1572.95L3208.15,1572.89L3208.15,1572.89L3208.15,1572.88L3208.15,1572.72L3208.14,1572.67L3208.14,1572.66L3208.14,1572.66L3208.14,1572.49L3208.14,1572.44L3208.14,1572.44L3208.14,1572.43L3208.13,1572.26L3208.13,1572.22L3208.13,1572.22L3208.12,1572.21L3208.12,1572.04L3208.11,1572L3208.11,1572L3208.11,1571.99L3208.1,1571.81L3208.1,1571.78L3208.1,1571.77L3208.1,1571.77L3208.09,1571.59L3208.09,1571.56L3208.09,1571.56L3208.09,1571.55L3208.07,1571.36L3208.07,1571.34L3208.07,1571.34L3208.07,1571.33L3208.05,1571.14L3208.05,1571.12L3208.05,1571.12L3208.05,1571.11L3208.03,1570.92L3208.03,1570.9L3208.03,1570.9L3208.03,1570.9L3208.01,1570.71L3208.01,1570.69L3208.01,1570.69L3208.01,1570.68L3207.99,1570.5L3207.99,1570.48L3207.99,1570.48L3207.99,1570.47L3207.97,1570.28L3207.97,1570.27L3207.97,1570.26L3207.97,1570.26L3207.95,1570.07L3207.94,1570.05L3207.94,1570.05L3207.94,1570.05L3207.92,1569.86L3207.92,1569.85L3207.92,1569.84L3207.92,1569.84L3207.89,1569.66L3207.89,1569.64L3207.89,1569.64L3207.89,1569.63L3207.87,1569.45L3207.86,1569.43L3207.86,1569.43L3207.86,1569.42L3207.84,1569.25L3207.83,1569.22L3207.83,1569.22L3207.83,1569.22L3207.81,1569.05L3207.8,1569.02L3207.8,1569.02L3207.8,1569.01L3207.77,1568.85L3207.77,1568.82L3207.77,1568.81L3207.77,1568.81L3207.74,1568.65L3207.73,1568.61L3207.73,1568.61L3207.73,1568.61L3207.71,1568.46L3207.7,1568.41L3207.7,1568.41L3207.7,1568.41L3207.67,1568.27L3207.66,1568.21L3207.66,1568.21L3207.66,1568.21L3207.64,1568.08L3207.62,1568.02L3207.62,1568.01L3207.62,1568.01L3207.6,1567.89L3207.58,1567.82L3207.58,1567.82L3207.58,1567.81L3207.56,1567.7L3207.54,1567.62L3207.54,1567.62Z" /></g><g
       id="g180"
       transform="matrix(1,0,0,1,-8.2633,-767.777)"><path
         id="path178"
         d="M3142.63,1568.83L3142.57,1568.88L3142.5,1568.95L3142.5,1568.96L3142.5,1568.96L3142.5,1568.95L3142.63,1568.83Z" /></g><g
       id="g184"
       transform="matrix(1,0,0,1,-8.2633,-767.777)"><path
         id="path182"
         d="M3207.22,1566.27L3207.25,1566.4L3207.27,1566.45C3207.3,1566.58 3207.33,1566.7 3207.36,1566.83L3207.31,1566.63C3207.3,1566.57 3207.28,1566.51 3207.27,1566.45L3207.26,1566.43L3207.25,1566.4L3207.24,1566.34L3207.22,1566.27L3207.21,1566.24L3207.2,1566.22L3207.22,1566.27Z" /></g><g
       id="g188"
       transform="matrix(1,0,0,1,-8.2633,-767.777)"><path
         id="path186"
         d="M3207.05,1565.67C3207.03,1565.61 3207.01,1565.55 3206.99,1565.48C3207.03,1565.61 3207.06,1565.73 3207.1,1565.86L3207.05,1565.67Z" /></g><g
       id="g192"
       transform="matrix(1,0,0,1,-8.2633,-767.777)"><path
         id="path190"
         d="M3206.55,1564.21L3206.58,1564.29L3206.59,1564.31L3206.62,1564.4L3206.66,1564.49L3206.66,1564.51L3206.7,1564.61L3206.74,1564.71L3206.76,1564.78L3206.75,1564.74L3206.74,1564.71L3206.74,1564.71L3206.73,1564.7L3206.69,1564.58L3206.66,1564.51L3206.66,1564.5L3206.66,1564.49L3206.63,1564.41L3206.59,1564.31L3206.58,1564.29L3206.58,1564.29L3206.57,1564.25L3206.55,1564.21Z" /></g><g
       id="g196"
       transform="matrix(1,0,0,1,-8.2633,-767.777)"><path
         id="path194"
         d="M3182.76,1550.81C3171.39,1551.08 3158.21,1556.04 3147.68,1564.36C3158.21,1556.04 3171.39,1551.08 3182.76,1550.81Z" /></g><g
       id="g200"
       transform="matrix(1,0,0,1,-8.2633,-767.777)"><path
         id="path198"
         d="M3205.39,1561.65L3205.31,1561.51L3205.31,1561.5L3205.39,1561.65Z" /></g><g
       id="g204"
       transform="matrix(1,0,0,1,-8.2633,-767.777)"><path
         id="path202"
         d="M3202.87,1558.06L3202.89,1558.09L3202.98,1558.18L3203.01,1558.22L3203.09,1558.31L3203.12,1558.35L3203.19,1558.43L3203.23,1558.47L3203.3,1558.56L3203.34,1558.6L3203.41,1558.69L3203.44,1558.73L3203.43,1558.72L3203.41,1558.69L3203.35,1558.62L3203.34,1558.6L3203.32,1558.59L3203.3,1558.56L3203.26,1558.5L3203.23,1558.47L3203.21,1558.45L3203.19,1558.43L3203.16,1558.39L3203.12,1558.35L3203.1,1558.32L3203.09,1558.31L3203.06,1558.28L3203.01,1558.22L3202.99,1558.19L3202.98,1558.18L3202.96,1558.16L3202.89,1558.09L3202.88,1558.07L3202.87,1558.06C3202.83,1558.02 3202.8,1557.98 3202.76,1557.94L3202.64,1557.81L3202.87,1558.06Z" /></g><g
       id="g208"
       transform="matrix(1,0,0,1,-8.2633,-767.777)"><path
         id="path206"
         d="M3199.65,1555.19L3199.66,1555.21L3199.65,1555.19L3199.65,1555.19L3199.65,1555.19L3199.54,1555.12L3199.65,1555.19Z" /></g><g
       id="g212"
       transform="matrix(1,0,0,1,-8.2633,-767.777)"><path
         id="path210"
         d="M3199.35,1554.99L3199.26,1554.93L3199.24,1554.92L3199.35,1554.99Z" /></g><g
       id="g216"
       transform="matrix(1,0,0,1,-8.2633,-767.777)"><path
         id="path214"
         d="M3198.38,1554.37L3198.44,1554.41L3198.38,1554.37L3198.29,1554.32L3198.38,1554.37Z" /></g><g
       id="g220"
       transform="matrix(1,0,0,1,-8.2633,-767.777)"><path
         id="path218"
         d="M3197.48,1553.86L3197.52,1553.88L3197.48,1553.86L3197.36,1553.8L3197.48,1553.86Z" /></g><g
       id="g224"
       transform="matrix(1,0,0,1,-8.2633,-767.777)"><path
         id="path222"
         d="M3195.93,1553.11L3196.04,1553.16L3196.08,1553.18C3196.18,1553.22 3196.28,1553.27 3196.38,1553.32L3196.22,1553.24C3196.18,1553.22 3196.13,1553.2 3196.08,1553.18L3196.06,1553.17L3196.04,1553.16L3195.98,1553.13L3195.93,1553.11L3195.9,1553.1L3195.89,1553.09L3195.93,1553.11Z" /></g><g
       id="g228"
       transform="matrix(1,0,0,1,-8.2633,-767.777)"><path
         id="path226"
         d="M3194.05,1552.38C3193.95,1552.35 3193.84,1552.31 3193.74,1552.28L3193.56,1552.22C3193.73,1552.27 3193.89,1552.33 3194.05,1552.38L3194.21,1552.44C3194.16,1552.42 3194.11,1552.4 3194.05,1552.38L3194.05,1552.38L3194.05,1552.38Z" /></g><g
       id="g232"
       transform="matrix(1,0,0,1,-8.2633,-767.777)"><path
         id="path230"
         d="M3187.93,1551.03C3189.76,1551.24 3191.51,1551.6 3193.17,1552.1C3191.51,1551.6 3189.76,1551.24 3187.93,1551.03Z" /></g><g
       id="g236"
       transform="matrix(1,0,0,1,-8.2633,-767.777)"><path
         id="path234"
         d="M3183.7,1550.8L3183.78,1550.8L3183.85,1550.8L3183.93,1550.8L3183.99,1550.8L3184.09,1550.8L3184.14,1550.8L3184.28,1550.81L3184.43,1550.81L3184.48,1550.81L3184.57,1550.81L3184.63,1550.81L3184.71,1550.81L3184.78,1550.82L3184.86,1550.82L3184.92,1550.82L3185,1550.82L3185.06,1550.82L3185.14,1550.83L3185.21,1550.83L3185.29,1550.83L3185.35,1550.84L3185.43,1550.84L3185.49,1550.84L3185.58,1550.85L3185.64,1550.85L3185.73,1550.85L3185.78,1550.86L3185.92,1550.86L3186.06,1550.87L3186.11,1550.87L3186.2,1550.88L3186.26,1550.88L3186.34,1550.89L3186.4,1550.89L3186.49,1550.9L3186.55,1550.9L3186.63,1550.91L3186.69,1550.91L3186.77,1550.92L3186.83,1550.93L3186.91,1550.93L3186.97,1550.94L3187.05,1550.94L3187.11,1550.95L3187.19,1550.96L3187.25,1550.96L3187.34,1550.97L3187.39,1550.98L3187.38,1550.98L3187.34,1550.97L3187.26,1550.96L3187.25,1550.96L3187.24,1550.96L3187.19,1550.96L3187.13,1550.95L3187.11,1550.95L3187.09,1550.95L3187.05,1550.94L3186.99,1550.94L3186.97,1550.94L3186.95,1550.94L3186.91,1550.93L3186.86,1550.93L3186.83,1550.93L3186.8,1550.92L3186.77,1550.92L3186.73,1550.92L3186.69,1550.91L3186.66,1550.91L3186.63,1550.91L3186.59,1550.91L3186.55,1550.9L3186.51,1550.9L3186.49,1550.9L3186.46,1550.9L3186.4,1550.89L3186.36,1550.89L3186.34,1550.89L3186.33,1550.89L3186.26,1550.88L3186.22,1550.88L3186.2,1550.88L3186.19,1550.88L3186.11,1550.87L3186.07,1550.87L3186.06,1550.87L3186.06,1550.87L3185.93,1550.86L3185.92,1550.86L3185.92,1550.86L3185.78,1550.86L3185.78,1550.86L3185.77,1550.86L3185.73,1550.85L3185.65,1550.85L3185.64,1550.85L3185.62,1550.85L3185.58,1550.85L3185.51,1550.84L3185.49,1550.84L3185.48,1550.84L3185.43,1550.84L3185.38,1550.84L3185.35,1550.84L3185.33,1550.83L3185.29,1550.83L3185.24,1550.83L3185.21,1550.83L3185.18,1550.83L3185.14,1550.83L3185.1,1550.83L3185.06,1550.82L3185.03,1550.82L3185,1550.82L3184.97,1550.82L3184.92,1550.82L3184.88,1550.82L3184.86,1550.82L3184.83,1550.82L3184.78,1550.82L3184.73,1550.81L3184.71,1550.81L3184.69,1550.81L3184.63,1550.81L3184.58,1550.81L3184.57,1550.81L3184.56,1550.81L3184.48,1550.81L3184.43,1550.81L3184.43,1550.81L3184.42,1550.81L3184.29,1550.81L3184.28,1550.81L3184.27,1550.81L3184.14,1550.8L3184.14,1550.8L3184.13,1550.8L3184.09,1550.8L3184.01,1550.8L3183.99,1550.8L3183.98,1550.8L3183.93,1550.8L3183.87,1550.8L3183.85,1550.8L3183.83,1550.8L3183.78,1550.8L3183.73,1550.8L3183.7,1550.8Z" /></g><g
       id="g240"
       transform="matrix(1,0,0,1,-8.2633,-767.777)"><path
         id="path238"
         d="M3183.64,1550.8L3183.59,1550.8L3183.56,1550.8L3183.53,1550.8L3183.49,1550.8L3183.45,1550.8L3183.41,1550.8L3183.37,1550.8L3183.34,1550.8L3183.31,1550.8L3183.26,1550.81L3183.22,1550.81L3183.2,1550.81L3183.17,1550.81L3183.16,1550.81L3183.2,1550.81L3183.26,1550.81L3183.34,1550.8L3183.41,1550.8L3183.49,1550.8L3183.56,1550.8L3183.64,1550.8L3183.7,1550.8L3183.68,1550.8L3183.64,1550.8Z" /></g><g
       id="g244"
       transform="matrix(1,0,0,1,-8.2633,-767.777)"><path
         id="path242"
         d="M3189.74,1632.8L3189.74,1632.8L3189.76,1632.78L3189.82,1632.72L3189.84,1632.7L3189.85,1632.69L3189.88,1632.67L3189.92,1632.63L3189.94,1632.61L3189.96,1632.59L3189.99,1632.56L3190.02,1632.53L3190.04,1632.51L3190.07,1632.48L3190.1,1632.45L3190.12,1632.43L3190.14,1632.41L3190.16,1632.39L3190.12,1632.43L3190.07,1632.48L3190.02,1632.53L3189.96,1632.59L3189.92,1632.63L3189.85,1632.69L3189.82,1632.72L3189.74,1632.8L3189.73,1632.81L3189.74,1632.8Z" /></g><g
       id="g248"
       transform="matrix(1,0,0,1,-8.2633,-767.777)"><path
         id="path246"
         d="M3202.33,1612.3L3202.34,1612.27L3202.35,1612.25L3202.35,1612.2L3202.37,1612.12L3202.38,1612.07L3202.39,1612.04L3202.4,1612.01L3202.41,1611.93L3202.43,1611.87L3202.43,1611.84L3202.44,1611.81L3202.45,1611.75L3202.47,1611.67L3202.47,1611.64L3202.48,1611.62L3202.49,1611.57L3202.5,1611.47L3202.51,1611.43L3202.51,1611.42L3202.52,1611.39L3202.54,1611.26L3202.55,1611.22L3202.55,1611.22L3202.54,1611.26L3202.51,1611.42L3202.5,1611.47L3202.48,1611.62L3202.47,1611.67L3202.44,1611.81L3202.43,1611.87L3202.4,1612.01L3202.38,1612.07L3202.35,1612.2L3202.34,1612.27L3202.33,1612.32L3202.33,1612.3Z" /></g><g
       id="g252"
       transform="matrix(1,0,0,1,-8.2633,-767.777)"><path
         id="path250"
         d="M3190.48,1626.31C3187.11,1629.11 3183.47,1631.36 3179.56,1633.08L3179.36,1639.06L3179.56,1633.08C3183.47,1631.36 3187.11,1629.11 3190.48,1626.31Z" /></g><g
       id="g256"
       transform="matrix(1,0,0,1,-8.2633,-767.777)"><path
         id="path254"
         d="M3142.84,1621.51C3144.9,1623.76 3147.18,1625.84 3149.7,1627.72C3147.15,1625.82 3144.86,1623.75 3142.84,1621.51Z" /></g><g
       id="g260"
       transform="matrix(1,0,0,1,-8.2633,-767.777)"><path
         id="path258"
         d="M3138,1611.01L3138.46,1612.81L3138.44,1612.77L3138,1611.01Z" /></g><g
       id="g264"
       transform="matrix(1,0,0,1,-8.2633,-767.777)"><path
         id="path262"
         d="M3136.73,1605.47L3137.11,1607.5L3137.09,1607.41L3136.73,1605.47Z" /></g><g
       id="g268"
       transform="matrix(1,0,0,1,-8.2633,-767.777)"><path
         id="path266"
         d="M3135.91,1600.45L3136.18,1602.53L3136.16,1602.42L3135.91,1600.45Z" /></g><g
       id="g272"
       transform="matrix(1,0,0,1,-8.2633,-767.777)"><path
         id="path270"
         d="M3135.44,1595.63L3135.58,1597.78L3135.57,1597.64L3135.44,1595.63Z" /></g><g
       id="g276"
       transform="matrix(1,0,0,1,-8.2633,-767.777)"><path
         id="path274"
         d="M3135.24,1590.81L3135.28,1593.08L3135.27,1592.91L3135.24,1590.81Z" /></g><g
       id="g280"
       transform="matrix(1,0,0,1,-8.2633,-767.777)"><path
         id="path278"
         d="M3135.35,1582.71L3135.2,1588.34L3135.2,1588.08L3135.35,1582.71Z" /></g><g
       id="g284"
       transform="matrix(1,0,0,1,-8.2633,-767.777)"><path
         id="path282"
         d="M3199.35,1570C3200.26,1573.59 3201.09,1577.71 3201.71,1582.08C3200.84,1576.07 3199.61,1570.58 3198.32,1566.27L3199.35,1570Z" /></g><g
       id="g288"
       transform="matrix(1,0,0,1,-8.2633,-767.777)"><path
         id="path286"
         d="M3187.03,1561.93C3184.62,1563.32 3181.61,1564.8 3178.26,1566.27C3181.61,1564.79 3184.62,1563.31 3187.03,1561.93Z" /></g><g
       id="g292"
       transform="matrix(1,0,0,1,-8.2633,-767.777)"><path
         id="path290"
         d="M3191.64,1558.77C3192.16,1558.29 3192.55,1557.85 3192.78,1557.44L3191.64,1558.77Z" /></g></g><g
     id="g308"
     transform="matrix(1,0,0,1,-25.729,-1057.7)"><g
       id="g298"
       transform="matrix(1,0,0,1,247.943,357.623)"><rect
         id="rect296"
         height="117.701"
         width="71.123"
         y="979.225"
         x="111.681" /></g><g
       id="g302"
       transform="matrix(-0.5,0.866025,-0.866025,-0.5,1418.73,1875.8)"><rect
         id="rect300"
         height="117.701"
         width="71.123"
         y="979.225"
         x="111.681" /></g><g
       id="g306"
       transform="matrix(0.5,0.866025,0.866025,-0.5,-628.399,1875.8)"><rect
         id="rect304"
         height="117.701"
         width="71.123"
         y="979.225"
         x="111.681" /></g></g></svg>